<?xml version="1.0" encoding="iso-8859-1"?>
<!-- Generator: Adobe Illustrator 16.0.0, SVG Export Plug-In . SVG Version: 6.00 Build 0)  -->
<!DOCTYPE svg PUBLIC "-//W3C//DTD SVG 1.1//EN" "http://www.w3.org/Graphics/SVG/1.1/DTD/svg11.dtd">
<svg version="1.1" id="Capa_1" xmlns="http://www.w3.org/2000/svg" xmlns:xlink="http://www.w3.org/1999/xlink" x="0px" y="0px"
	 width="53.663px" height="53.663px" viewBox="0 0 53.663 53.663" style="enable-background:new 0 0 53.663 53.663;"
	 xml:space="preserve">
<g>
	<g id="_x36__1_">
		<g>
			<path d="M38.629,0H15.036c-5.014,0-9.094,4.086-9.094,9.107v30.854c0,0.326,0.13,0.641,0.36,0.87l12.454,12.472
				c0.23,0.23,0.542,0.36,0.868,0.36h19.005c5.015,0,9.092-4.086,9.092-9.106V9.107C47.721,4.086,43.644,0,38.629,0z M19.015,50.083
				l-9.923-9.937h4.863c2.695,0,5.06,2.01,5.06,4.299V50.083z M45.264,44.557c0,3.666-2.977,6.646-6.635,6.646H21.473v-6.758
				c0-3.664-3.442-6.762-7.518-6.762H8.4V9.107c0-3.664,2.977-6.646,6.636-6.646h23.595c3.656,0,6.634,2.981,6.634,6.646
				L45.264,44.557L45.264,44.557z M36.297,14.524H16.637c-0.68,0-1.229,0.55-1.229,1.23c0,0.68,0.55,1.23,1.229,1.23h19.661
				c0.68,0,1.229-0.55,1.229-1.23C37.526,15.074,36.977,14.524,36.297,14.524z M36.297,21.909H16.637c-0.68,0-1.229,0.55-1.229,1.23
				c0,0.68,0.55,1.23,1.229,1.23h19.661c0.68,0,1.229-0.55,1.229-1.23C37.526,22.459,36.977,21.909,36.297,21.909z M36.297,29.294
				H16.637c-0.68,0-1.229,0.551-1.229,1.229c0,0.682,0.55,1.231,1.229,1.231h19.661c0.68,0,1.229-0.551,1.229-1.231
				C37.526,29.845,36.977,29.294,36.297,29.294z"/>
		</g>
	</g>
</g>
<g>
</g>
<g>
</g>
<g>
</g>
<g>
</g>
<g>
</g>
<g>
</g>
<g>
</g>
<g>
</g>
<g>
</g>
<g>
</g>
<g>
</g>
<g>
</g>
<g>
</g>
<g>
</g>
<g>
</g>
</svg>
